<svg xmlns="http://www.w3.org/2000/svg" viewBox="0 0 163 26" fill="none"><path d="M21.0368 23.6861C23.9624 23.4138 26.888 22.4609 26.888 19.4662V9.80126L25.4949 8.44L23.9624 9.80126V17.0159L25.2162 18.1049L22.4299 20.5552H22.2906L19.5043 18.241L20.2009 17.5604V2.85885C20.2009 1.76984 19.2256 1.22534 18.6684 1.08921V0.816964C18.947 0.680838 19.365 0.544712 19.9222 0.544712C20.8974 0.544712 21.7333 1.08921 22.012 1.76984H22.1513C22.7085 0.953089 23.6838 0.544712 24.5197 0.544712C24.7983 0.544712 25.0769 0.544712 25.3556 0.680838V0.953089C24.9376 1.08921 24.1017 1.63372 24.1017 3.1311V9.25675L27.8632 5.85361H28.1419C28.4205 6.12586 29.953 7.48712 30.3709 7.75937C30.5103 7.8955 30.6496 7.8955 30.9282 7.8955C31.2068 7.8955 31.4855 7.75937 31.7641 7.62325V8.03162C31.4855 8.30387 31.0675 8.71225 31.0675 9.39288V17.6965C31.0675 21.3719 26.888 23.6861 21.3154 24.0944V23.6861H21.0368ZM19.6436 0.953089C20.2009 1.36147 20.7581 1.76984 20.7581 2.72272V17.8327L20.2009 18.3772L22.5692 20.2829L23.2658 19.7384L21.4547 18.241L21.7333 17.9688V2.85885C21.594 1.63372 20.4795 1.08921 19.6436 0.953089ZM26.1915 22.7332C27.306 22.0526 28.4205 21.2358 28.4205 19.6023V9.25675L26.7487 7.48712L25.9128 8.16775L27.306 9.66513V19.4662C27.4453 20.8274 26.888 21.9164 26.1915 22.7332ZM33.1573 9.25675C34.8291 8.44 37.1974 7.07874 38.8692 5.85361H39.1479C40.2624 6.94262 41.7949 8.71225 43.188 9.93738V10.2096L37.0581 14.0212V16.4714C37.6154 16.8798 39.4265 17.6965 40.541 18.1049L43.0487 15.7908L43.3274 16.063L38.4513 20.6913H38.1726C36.5009 20.0107 34.4111 19.0578 33.0179 18.3772C33.1573 17.8327 33.2966 16.6075 33.2966 15.1102V9.25675H33.1573ZM38.8692 19.7384C37.1974 19.0578 35.8043 18.3772 34.4111 17.6965C34.5504 17.2882 34.5504 16.6075 34.5504 15.1102V8.9845L33.5752 9.52901V15.1102C33.5752 16.6075 33.5752 17.6965 33.4359 18.1049C34.6897 18.7855 36.5009 19.6023 38.1726 20.2829L38.8692 19.7384ZM37.0581 13.6128L39.8444 11.8431C38.8692 10.7541 37.894 9.66513 37.0581 8.84838V13.6128ZM37.894 7.62325L37.1974 8.16775C38.0333 9.12063 39.1479 10.3458 40.2624 11.5709L41.0983 11.0264C39.8444 9.80126 38.7299 8.57613 37.894 7.62325ZM152.551 23.6861C155.477 23.4138 158.403 22.4609 158.403 19.4662V9.80126L157.009 8.44L155.477 9.80126V17.0159L156.731 18.1049L153.944 20.5552H153.666L150.879 18.241L151.576 17.5604V2.85885C151.576 1.76984 150.601 1.22534 150.044 1.08921V0.816964C150.322 0.680838 150.74 0.544712 151.297 0.544712C152.273 0.544712 153.109 1.08921 153.387 1.76984H153.526C154.084 0.953089 155.059 0.544712 155.895 0.544712C156.174 0.544712 156.452 0.544712 156.731 0.680838V0.953089C156.313 1.08921 155.477 1.63372 155.477 3.1311V9.25675L159.099 5.85361H159.378C159.656 6.12586 161.189 7.48712 161.607 7.75937C161.746 7.8955 161.885 7.8955 162.164 7.8955C162.443 7.8955 162.721 7.75937 163 7.62325V8.16775C162.721 8.44 162.303 8.84838 162.303 9.52901V17.6965C162.303 21.3719 158.124 23.6861 152.551 24.0944V23.6861ZM151.158 0.953089C151.576 1.22534 152.273 1.76984 152.273 2.72272V17.6965L151.715 18.241L154.084 20.1468L154.78 19.6023L152.969 18.1049L153.248 17.8327V2.85885C153.109 1.63372 151.994 1.08921 151.158 0.953089ZM157.567 22.5971C158.681 21.9164 159.796 21.0997 159.796 19.4662V9.25675L158.124 7.48712L157.427 8.16775L158.821 9.66513V19.4662C158.96 20.8274 158.403 21.9164 157.567 22.5971ZM69.2402 9.25675C70.912 8.44 73.2803 7.07874 74.9521 5.85361H75.2308C76.3453 6.94262 77.8778 8.71225 79.1316 9.80126V10.0735L73.141 13.885V16.3353C73.8376 16.7437 75.5094 17.5604 76.6239 17.9688L79.1316 15.6547L79.4103 15.9269L74.5342 20.5552H74.2556C72.5838 19.8746 70.494 18.9217 69.1009 18.241C69.2402 17.6965 69.3795 16.4714 69.3795 14.974V9.25675H69.2402ZM74.8128 19.7384C73.141 19.0578 71.7479 18.3772 70.3547 17.6965C70.494 17.2882 70.494 16.6075 70.494 15.1102V8.9845L69.6581 9.39288V14.974C69.6581 16.4714 69.6581 17.5604 69.5188 17.9688C70.7727 18.6494 72.5838 19.4662 74.2556 20.1468L74.8128 19.7384ZM73.141 13.4766L75.9274 11.707C74.9521 10.618 73.9769 9.52901 73.141 8.71225V13.4766ZM73.9769 7.62325L73.141 8.16775C73.9769 9.12063 75.0915 10.3458 76.206 11.5709L77.0419 11.0264C75.9273 9.80126 74.8128 8.57613 73.9769 7.62325ZM84.7043 2.45047V16.7437C84.7043 17.2882 85.2615 17.9688 85.8188 18.1049L86.6547 17.2882L86.9333 17.5604L83.8684 20.6913H83.5897C82.4752 20.4191 80.8034 19.3301 80.8034 17.5604V4.2201L79.9675 3.40335L78.9923 4.35623L78.7137 4.08398L82.1966 0.544712H82.4752L84.7043 2.45047ZM84.2863 19.6023C83.1718 19.3301 82.0573 18.6494 82.0573 17.152V3.6756L80.8034 2.45047L80.1068 3.1311L81.2214 4.08398V17.5604C81.2214 19.0578 82.4752 20.0107 83.5897 20.2829L84.2863 19.6023ZM88.3265 9.25675C89.9983 8.44 92.3667 7.07874 94.0385 5.85361H94.3171C95.4316 6.94262 96.9641 8.71225 98.2179 9.80126V10.0735L92.2273 13.885V16.3353C92.7846 16.7437 94.5957 17.5604 95.7103 17.9688L98.2179 15.6547L98.4966 15.9269L93.6205 20.5552H93.3419C91.6701 19.8746 89.5803 18.9217 88.1872 18.241C88.3265 17.6965 88.4658 16.4714 88.4658 14.974V9.25675H88.3265ZM93.8991 19.7384C92.2273 19.0578 90.8342 18.3772 89.441 17.6965C89.5803 17.2882 89.5803 16.6075 89.5803 15.1102V8.9845L88.7444 9.39288V14.974C88.7444 16.4714 88.7444 17.5604 88.6051 17.9688C89.859 18.6494 91.6701 19.4662 93.3419 20.1468L93.8991 19.7384ZM92.2273 13.4766L95.0137 11.707C94.0385 10.618 93.0632 9.52901 92.2273 8.71225V13.4766ZM93.0632 7.62325L92.3667 8.16775C93.2026 9.12063 94.3171 10.3458 95.4316 11.5709L96.1282 11.0264C95.0137 9.80126 93.8991 8.57613 93.0632 7.62325ZM117.862 9.80126V16.7437C117.862 17.2882 118.419 17.9688 118.976 17.9688L119.812 17.152L120.091 17.4243L117.026 20.5552H116.886C115.772 20.2829 114.1 19.3301 114.1 17.4243V9.52901L113.264 8.71225L112.289 9.52901L112.01 9.25675L115.493 5.85361H115.772L118.001 8.03162V9.25675L120.787 5.98974H121.066C121.623 6.53424 122.459 7.351 123.295 7.8955L120.926 10.618C120.23 10.0735 119.394 9.25675 118.837 8.84838L117.862 9.80126ZM117.583 19.6023C116.468 19.3301 115.354 18.6494 115.354 17.152V8.9845L114.239 7.75937L113.543 8.44L114.518 9.39288V17.4243C114.518 18.9217 115.772 19.8746 116.886 20.1468L117.583 19.6023ZM119.115 8.57613C119.533 8.9845 120.23 9.66513 120.787 10.0735L121.344 9.39288C120.787 8.9845 119.951 8.16775 119.533 7.8955L119.115 8.57613ZM126.917 20.6913L123.574 18.5133V14.1573C124.409 13.6128 126.221 12.3876 127.056 11.8431C125.663 11.1625 124.549 10.3458 123.852 9.39288V9.12063C125.803 8.03162 127.335 6.94262 128.45 5.85361H128.728C128.728 5.85361 132.908 7.75937 133.047 7.8955C133.326 8.03162 133.465 8.03162 133.604 8.03162C133.883 8.03162 134.162 7.8955 134.44 7.75937V8.16775C134.162 8.44 133.744 8.84838 133.744 9.39288V16.6075C133.744 17.4243 134.44 17.8327 134.997 17.9688L135.833 17.152L136.112 17.4243L133.047 20.5552H132.908C131.654 20.2829 130.261 19.0578 130.121 17.6965L127.196 20.5552H126.917V20.6913ZM127.614 19.6023L124.827 17.8327V13.7489L123.991 14.2934V18.241L127.056 20.1468L127.614 19.6023ZM129.982 12.5238V10.3458L125.942 8.30387C125.663 8.57613 124.549 9.12063 124.27 9.39288C125.245 10.4819 127.753 11.9793 129.982 12.5238ZM133.604 19.6023C132.49 19.1939 131.375 18.5133 131.375 17.0159V9.52901L127.196 7.48712C127.056 7.62325 126.638 7.8955 126.499 8.03162L130.539 10.0735V17.4243C130.539 18.7855 131.932 19.8746 132.908 20.2829L133.604 19.6023ZM129.982 17.2882V12.9321C129.146 12.6599 128.171 12.3876 127.335 11.9793V17.4243L128.868 18.3772L129.982 17.2882ZM99.7504 18.3772V9.25675L104.766 5.85361H105.044C106.02 6.26199 109.224 7.62325 109.503 7.75937C109.642 7.75937 109.781 7.8955 110.06 7.8955C110.338 7.8955 110.617 7.75937 111.035 7.62325V8.16775C110.756 8.44 110.338 8.9845 110.338 9.39288V17.152C110.338 18.9217 110.756 20.0107 111.453 20.6913V20.9636C110.338 22.0526 107.831 24.639 106.716 25.8641H106.577C105.462 25.3196 103.651 24.7751 102.258 24.7751C101.144 24.7751 99.8897 25.0473 99.0538 25.728L98.7752 25.5918C99.6111 23.6861 101.422 21.6442 103.791 21.6442C105.184 21.6442 107.134 22.1887 108.806 23.1416C107.691 21.9164 106.716 19.6023 106.716 17.8327L103.791 20.5552H103.512L99.7504 18.3772ZM102.119 23.6861C101.004 23.6861 100.029 24.2306 99.4718 24.9112V25.0473C100.168 24.639 100.865 24.5028 102.119 24.5028C103.512 24.5028 105.462 24.9112 106.438 25.4557L106.995 24.7751C105.741 24.2306 103.93 23.6861 102.119 23.6861ZM103.233 20.2829L103.93 19.7384L101.004 17.6965V8.9845L100.168 9.52901V18.241L103.233 20.2829ZM107.691 8.9845L103.512 7.351V8.16775L106.716 9.52901V17.6965C106.716 19.4662 107.552 21.3719 108.806 22.8693L109.503 22.1887C108.388 20.8274 107.691 19.3301 107.691 17.5604V8.9845ZM106.438 17.2882V9.80126L103.651 8.57613V17.152L105.462 18.241L106.438 17.2882ZM142.103 9.25675L145.725 5.85361H146.003C146.282 6.12586 147.954 7.62325 148.232 7.75937C148.372 7.8955 148.511 7.8955 148.65 7.8955C148.929 7.8955 149.208 7.75937 149.486 7.62325V8.16775C149.208 8.44 148.79 8.9845 148.79 9.52901V18.241C147.257 18.6494 146.003 19.4662 144.61 20.9636H144.471L142.103 20.4191V22.3248L143.356 23.4138L140.431 25.8641H140.291L137.505 23.5499L138.202 22.7332V19.4662C137.923 19.4662 137.366 19.3301 137.087 19.1939V18.7855C137.366 18.6494 138.341 17.8327 138.341 17.152V9.66513L137.505 8.84838L136.53 9.80126L136.251 9.52901L139.734 6.12586H140.013L142.242 8.30387V9.25675H142.103ZM138.62 23.0054L138.062 23.5499L140.291 25.4557L140.988 24.9112L139.177 23.4138L139.456 23.1416V8.9845L138.202 7.75937L137.644 8.30387L138.62 9.25675V23.0054ZM144.889 17.6965V9.80126L143.496 8.44L141.963 9.80126V17.0159C142.66 17.2882 144.61 17.5604 144.889 17.6965ZM144.471 20.5552C144.61 20.2829 144.889 20.0107 145.028 19.8746L141.963 19.3301V20.1468L144.471 20.5552ZM143.774 8.30387L145.307 9.80126V17.6965L146.143 17.2882V9.25675L144.471 7.62325L143.774 8.30387ZM1.11453 12.6599C1.11453 9.12063 3.76154 6.80649 6.26923 5.71749L6.40855 5.98974C5.57265 6.94262 5.01538 7.8955 5.01538 10.0735C5.01538 12.5238 5.71197 14.1573 6.68718 15.2463C6.96581 14.8379 7.24444 14.2934 7.24444 13.7489V10.2096L11.7026 7.07874L11.8419 7.351C11.5632 7.75937 11.2846 8.30387 11.2846 9.12063V11.4348C11.2846 13.0683 8.63761 14.8379 6.96581 15.3824C8.08034 16.4714 9.61282 16.8798 11.2846 16.8798C11.8419 16.8798 12.3991 16.8798 12.9564 16.7437V6.80649C11.4239 6.67037 10.0308 6.39812 8.77692 5.98974C7.38376 5.58136 5.9906 5.17298 4.87607 5.17298C3.06496 5.17298 0.835897 5.71749 0.835897 8.30387V9.12063L0.417949 9.25675C0.139316 8.44 0 7.62325 0 6.94262C0 3.81173 2.36838 1.08921 6.12991 1.08921C7.66239 1.08921 9.19487 1.49759 10.588 1.90597C11.9812 2.31435 13.3744 2.72272 14.7675 2.72272C15.4641 2.72272 15.8821 2.31435 15.8821 1.63372C15.8821 0.953089 15.6034 0.680838 15.0462 0.544712V0.272461C16.7179 0.544712 18.3897 1.49759 18.3897 3.53948C18.5291 5.58136 16.7179 6.80649 13.653 6.80649H13.3744V16.8798C15.3248 16.4714 16.7179 15.6547 17.6932 14.0212L17.9718 14.1573C16.8573 17.5604 14.2103 20.8274 9.61282 20.8274C5.01538 20.8274 1.11453 18.1049 1.11453 12.6599ZM13.653 5.58136C10.3094 5.58136 7.24444 3.94785 4.87607 3.94785C3.20427 3.94785 1.39316 4.62848 0.835897 6.39812H0.975214C1.67179 5.17298 3.34359 4.76461 4.87607 4.76461C7.38376 4.76461 10.3094 6.39812 13.653 6.39812C16.3 6.39812 17.9718 5.44524 18.1111 3.40335H17.9718C17.6932 5.03686 16.3 5.58136 13.653 5.58136ZM4.04017 7.62325C2.78632 8.84838 1.67179 10.4819 1.67179 12.6599C1.67179 17.8327 5.1547 20.4191 9.75214 20.4191C12.5385 20.4191 14.4889 18.9217 15.6034 17.8327L15.4641 17.6965C14.2103 18.7855 12.3991 19.6023 9.61282 19.6023C5.9906 19.6023 2.50769 17.4243 2.50769 12.6599C2.50769 10.7541 3.20427 8.84838 4.04017 7.62325ZM8.49829 13.4766V9.66513L7.66239 10.3458V13.885C7.66239 14.2934 7.52308 14.5657 7.52308 14.8379H7.66239C8.08034 14.4295 8.49829 14.0212 8.49829 13.4766ZM50.7111 12.6599C50.7111 9.12063 53.3581 6.80649 55.8658 5.71749L56.0051 5.98974C55.0299 7.07874 54.4726 8.03162 54.4726 10.0735C54.4726 12.5238 55.1692 14.1573 56.1444 15.2463C56.4231 14.8379 56.7017 14.2934 56.7017 13.7489V10.2096L61.2991 6.94262L61.4385 7.21487C61.0205 7.75937 60.8812 8.30387 60.8812 9.12063V11.4348C60.8812 13.0683 58.2342 14.8379 56.5624 15.3824C57.6769 16.4714 59.2094 16.8798 60.8812 16.8798C61.4385 16.8798 61.9957 16.8798 62.553 16.7437V6.80649C61.0205 6.67037 59.6273 6.39812 58.3735 5.98974C56.9803 5.58136 55.5872 5.17298 54.4726 5.17298C52.6615 5.17298 50.4325 5.71749 50.4325 8.30387V9.12063L50.1538 9.25675C49.8752 8.44 49.7359 7.62325 49.7359 6.94262C49.7359 3.81173 52.1043 1.08921 55.8658 1.08921C57.3983 1.08921 58.9308 1.49759 60.3239 1.90597C61.7171 2.31435 63.1103 2.72272 64.5034 2.72272C65.2 2.72272 65.6179 2.31435 65.6179 1.63372C65.6179 0.953089 65.3393 0.680838 64.7821 0.544712V0.272461C66.4538 0.544712 68.1256 1.49759 68.1256 3.53948C68.1256 5.98974 66.3145 7.07874 63.2496 7.07874H62.9709V17.152C64.9214 16.7437 66.3145 15.9269 67.2897 14.2934L67.5684 14.4295C66.4538 17.8327 63.8068 21.0997 59.2094 21.0997C54.612 20.8274 50.7111 18.1049 50.7111 12.6599ZM63.2496 5.58136C59.906 5.58136 56.841 3.94785 54.4726 3.94785C52.9402 3.94785 51.1291 4.62848 50.4325 6.39812H50.5718C51.2684 5.17298 52.9402 4.76461 54.4726 4.76461C56.9803 4.76461 59.906 6.39812 63.2496 6.39812C65.8966 6.39812 67.5684 5.44524 67.7077 3.40335H67.5684C67.1504 5.03686 65.8966 5.58136 63.2496 5.58136ZM53.6368 7.62325C52.3829 8.84838 51.2684 10.4819 51.2684 12.6599C51.2684 17.8327 54.7513 20.4191 59.3487 20.4191C62.135 20.4191 64.0855 18.9217 65.2 17.8327L65.0607 17.6965C63.8068 18.7855 61.9957 19.6023 59.2094 19.6023C55.5872 19.6023 52.1043 17.4243 52.1043 12.6599C52.1043 10.7541 52.8009 8.84838 53.6368 7.62325ZM58.0949 13.4766V9.66513L57.259 10.2096V13.7489C57.259 14.1573 57.1197 14.4295 57.1197 14.7018H57.259C57.6769 14.4295 58.0949 14.0212 58.0949 13.4766Z" fill="currentColor"></path></svg>