<svg xmlns="http://www.w3.org/2000/svg" viewBox="0 0 90 48" fill="none"><path d="M15.3787 0.234414V1.19629L16.2717 1.4016C17.6442 1.74473 17.8509 2.56879 18.3994 5.17738L19.8281 12.511L15.8456 33.9324L10.4217 7.01676C9.80297 4.06363 9.59766 1.86707 11.7956 1.38613L12.825 1.18082V0.234414H0V1.19629L1.305 1.54082C2.61 1.88394 3.15844 2.50129 4.05141 6.5527L12.7702 47.8163H15.0202L20.8561 16.6454L27.3248 47.8163H29.1108L37.4878 7.82816C38.4497 3.22973 38.8617 1.92191 40.5112 1.50004L41.8148 1.15551V0.234414H32.393V1.19629L33.8344 1.47051C35.8945 1.88254 36.3741 3.18613 35.4122 8.47363L30.2766 33.9324L25.0734 7.01676C24.5109 4.33926 24.1805 1.86707 26.4473 1.45504L27.9577 1.18082V0.218945L15.3787 0.234414ZM76.4719 0.363789V1.32566L78.1875 1.7377C79.6964 2.08082 80.3152 2.63066 80.3152 4.55301V37.853C80.3152 41.5599 80.3152 46.4353 76.4691 46.4353C74.2725 46.4353 72.5597 44.513 72.6947 43.208C72.8311 41.0803 76.5394 41.2168 76.7447 37.7841C76.9514 35.3935 75.4397 34.2685 73.9294 34.0758C71.8017 33.8016 69.1931 35.5861 69.1228 39.1566C69.0553 43.755 72.0759 47.9428 77.2228 47.9428C82.9181 47.9428 86.6447 44.101 86.6447 36.7533L86.6461 4.62051C86.6461 2.69816 87.127 2.07941 88.4995 1.7377L90 1.31019V0.34832L76.4719 0.363789ZM53.3391 0.0712891C47.5031 0.0712891 44.2083 4.94676 44.2083 11.3311C44.2083 23.2097 59.5195 27.8096 59.5195 38.521C59.5195 43.6018 57.3905 46.4157 54.3164 46.4157C49.718 46.4157 46.4203 40.8568 45.5977 31.9988H44.5683V47.6532H45.3923C46.0786 45.4032 46.9716 45.1824 47.7267 45.1824C49.0317 45.1824 50.4028 47.9246 54.3853 47.9246C60.4955 47.9246 64.4766 42.6399 64.4794 35.3583C64.4794 21.0778 49.1681 17.5763 49.1681 7.34582C49.1681 5.01144 49.8544 1.58019 53.2884 1.58019C58.2328 1.58019 60.3619 8.10238 61.1845 15.9985H62.2139V0.346914H61.3898C61.0467 1.85723 60.4294 2.54348 59.5364 2.54348C57.9572 2.54348 57.1458 0.0726945 53.3573 0.0726945L53.3391 0.0712891ZM64.3922 13.5361V13.7049L64.4245 13.6852L64.4077 13.5446L64.3922 13.5361Z" fill="currentColor"></path></svg>