<svg xmlns="http://www.w3.org/2000/svg" viewBox="0 0 125 32" fill="none"><path fill-rule="evenodd" clip-rule="evenodd" d="M113.462 31.9782C111.861 31.8091 109.313 31.2591 108.465 30.8997L108.05 30.7241L107.994 28.7007C107.963 27.5876 107.927 26.0994 107.914 25.3936L107.891 24.1101L108.14 23.9927C108.276 23.9284 108.552 23.8681 108.752 23.8589L109.116 23.8421L109.427 24.5951C110.637 27.5325 112.057 29.1165 113.912 29.5981C114.62 29.7819 115.946 29.7836 116.47 29.6012C117.937 29.0905 118.742 27.9956 118.749 26.4999C118.757 24.7283 117.769 23.877 114.037 22.4399C111.725 21.5496 110.918 21.0913 109.958 20.1224C108.922 19.0771 108.424 17.8873 108.331 16.2301C108.218 14.2274 108.854 12.5394 110.263 11.1008C111.681 9.65302 113.521 8.86854 116.029 8.64298C118.237 8.44447 121.626 8.90585 123.402 9.6472L123.726 9.7824L123.784 11.5862C123.815 12.5781 123.848 13.9078 123.857 14.5413L123.872 15.6927L123.437 15.8519C122.749 16.1038 122.704 16.0719 122.321 15.0729C121.249 12.2714 120.002 10.9458 118.061 10.5409C116.877 10.2944 115.889 10.5597 115.17 11.3168C114.61 11.9075 114.391 12.4319 114.338 13.3129C114.28 14.2672 114.454 14.783 115.045 15.4213C115.774 16.2075 116.969 16.8865 119.349 17.8668C122.263 19.0671 123.654 20.0864 124.41 21.576C124.901 22.5436 125.04 23.3161 124.991 24.8036C124.953 25.9197 124.917 26.149 124.66 26.8983C123.82 29.3414 121.924 30.95 118.995 31.7041C118.003 31.9594 117.861 31.9727 115.889 31.994C114.752 32.0063 113.66 31.9991 113.462 31.9782ZM74.7301 31.7249C77.4601 31.3214 79.4625 30.3973 81.1584 28.7585C83.6095 26.3896 84.7901 23.0464 84.6307 18.9261C84.5484 16.8047 84.197 15.4189 83.305 13.6997C82.0966 11.3705 80.0299 9.73722 77.6833 9.25599C75.9229 8.89524 73.6579 9.17761 71.936 9.97338C71.5068 10.1712 71.096 10.3335 71.0231 10.3335C70.9075 10.3335 70.895 9.67766 70.9242 5.16689L70.9582 0L70.5974 0.0711895C70.3992 0.11055 68.3769 0.481914 66.1032 0.896744C63.8296 1.31157 61.8806 1.6713 61.7722 1.69663C61.6076 1.73462 61.5788 1.79657 61.5965 2.07381C61.616 2.38288 61.642 2.41094 61.9733 2.48282C63.1125 2.72994 63.3153 2.8179 63.7389 3.24916C64.2577 3.77763 64.4921 4.45224 64.6459 5.86033C64.7685 6.98229 64.7955 26.3126 64.6785 29.1661L64.6094 30.858L65.5359 31.0531C69.0411 31.792 72.5353 32.048 74.7301 31.7249ZM99.4859 31.7222C101.568 31.3892 103.618 30.4041 105.092 29.0285C105.899 28.2752 106.167 27.9114 106.055 27.7211C105.756 27.2128 105.768 27.2131 105.003 27.6766C103.785 28.4138 103.175 28.6171 101.744 28.7619C100.073 28.931 98.5314 28.6555 97.1067 27.9336C96.1619 27.4548 95.0292 26.353 94.4632 25.3622C93.691 24.0098 93.2719 22.4306 93.1469 20.4006C93.0944 19.5484 93.1059 19.3358 93.2073 19.2725C93.2764 19.2294 96.273 19.1938 99.9151 19.1931L106.498 19.1917V18.9354C106.498 18.3528 106.304 16.7866 106.13 15.9658C105.43 12.6643 103.585 10.3102 100.952 9.36346C99.9043 8.98628 98.9133 8.82781 97.607 8.82781C94.5118 8.82781 91.984 9.8286 90.0284 11.8278C88.4693 13.4221 87.5443 15.2128 86.9797 17.7302C86.8096 18.4887 86.7811 18.883 86.7811 20.4763C86.7811 22.0575 86.8103 22.4655 86.9752 23.197C88.0232 27.8429 91.1239 30.9025 95.5792 31.6863C96.7081 31.8848 98.3717 31.9002 99.4859 31.7222ZM35.7737 31.6069C37.3682 31.2399 38.6394 30.6797 39.7755 29.8431C42.5395 27.8084 44.0538 24.6889 44.1937 20.7419C44.3315 16.8509 43.1409 13.5344 40.8391 11.3959C38.9707 9.65987 36.6158 8.82781 33.5719 8.82781C30.3455 8.82781 27.7468 9.81389 25.7478 11.797C23.6064 13.9215 22.4734 16.8848 22.4734 20.363C22.4734 23.9712 23.4971 26.8839 25.4815 28.9245C26.5759 30.0495 27.6412 30.7245 29.1684 31.2601C29.7087 31.4494 30.1059 31.5405 31.55 31.805C31.6736 31.8276 32.5025 31.8317 33.3921 31.8143C34.5914 31.7907 35.1994 31.7379 35.7737 31.6069ZM18.3997 21.2734L18.1917 20.4318C17.8004 18.8508 17.0473 17.7189 16.1163 17.313C15.6868 17.1258 14.6232 17.019 12.5659 16.9574L11.5999 16.9286V18.9278C11.5999 21.1067 11.7214 24.0543 11.877 25.6538C12.0944 27.884 12.6725 29.1162 13.7107 29.5621C13.909 29.6474 14.5361 29.7856 15.1045 29.8695C15.6729 29.9534 16.2087 30.0581 16.2952 30.1019C16.5146 30.2138 16.5275 31.3686 16.3104 31.4508C16.1403 31.5151 0.281604 31.5103 0.119448 31.446C0.0447933 31.4162 0.00729312 31.1954 0.00729312 30.7868C0.00729312 30.0526 -0.0402794 30.0855 1.40003 29.8223C2.50492 29.62 2.90007 29.4136 3.38792 28.7831C4.33378 27.5606 4.5383 25.2071 4.54038 15.5158C4.54246 6.41413 4.36433 4.49982 3.38619 3.09309C2.95215 2.46879 2.22088 2.12994 0.995854 1.9855L0.052085 1.87392L0.0260412 1.14797L0 0.421674L0.295839 0.369991C0.458343 0.34124 6.17097 0.329263 12.9902 0.342953L25.3891 0.368283L25.4474 0.722528C25.4794 0.917279 25.5318 2.91614 25.5638 5.1645L25.6224 9.25222L24.9832 9.44355C24.0207 9.73174 24.0266 9.73517 23.5939 8.60636C22.5304 5.83295 21.3112 4.2349 19.6428 3.42817C18.4921 2.87129 17.9601 2.80421 14.7104 2.80421H11.8822L11.8336 3.26936C11.7423 4.14112 11.5978 9.75125 11.5989 12.3932L11.5999 15.0284L12.4312 15.0236C12.8885 15.0212 13.7899 14.988 14.4344 14.95C15.4035 14.8928 15.6917 14.8422 16.0969 14.6573C17.0931 14.2028 17.7709 13.2024 18.1862 11.5732L18.4004 10.7322L19.8675 10.6809V21.3247L18.3997 21.2734ZM44.4187 31.4292C44.3368 31.3779 44.31 31.1735 44.3288 30.7437L44.3559 30.1317L44.6704 30.0656C44.8434 30.0293 45.2149 29.9571 45.4962 29.9054C46.3663 29.7453 46.8663 29.2794 47.1476 28.368C47.3768 27.6249 47.4778 25.2485 47.483 20.4763C47.4896 14.6395 47.3663 13.2612 46.7674 12.4798C46.4431 12.0564 46.209 11.936 45.4219 11.7871C45.0333 11.7135 44.6243 11.6348 44.5132 11.6118C44.3329 11.5749 44.3107 11.517 44.3107 11.083C44.3107 10.661 44.3382 10.5847 44.5132 10.5135C44.7819 10.4046 53.6845 8.65051 53.9689 8.65051H54.1908L54.1474 9.95696C54.1234 10.6757 54.0849 11.722 54.0623 12.2823L54.0207 13.3009L54.3432 12.7276C55.3755 10.8924 56.5336 9.75331 58.0732 9.05782C58.9183 8.67584 59.4822 8.56187 60.5264 8.56187C61.7649 8.56187 63.0028 8.96027 63.0028 9.35867C63.0028 9.62667 60.8212 15.3094 60.7007 15.3549C60.642 15.3771 60.2159 15.2163 59.7541 14.9979C58.7906 14.542 57.8867 14.3192 57.0093 14.3212C55.9162 14.3236 54.6957 14.72 54.2137 15.2296C54.0078 15.4476 54.0068 15.4606 53.9554 18.7153C53.9047 21.9384 54.0137 25.8697 54.1974 27.451C54.3543 28.7979 54.7172 29.4612 55.4672 29.7699C55.7176 29.8729 57.3002 30.0865 57.8169 30.0872C57.8562 30.0872 57.8763 30.3962 57.8617 30.7738L57.8357 31.4604L51.1855 31.4816C47.5667 31.4929 44.5475 31.47 44.4187 31.4292ZM34.3174 30.2172C34.9539 30.0311 35.7393 29.3051 36.1578 28.5162C37.022 26.8873 37.4081 24.4784 37.4175 20.6532C37.4297 15.8597 36.6671 12.8091 35.0581 11.2121C34.3824 10.5416 33.9032 10.3331 33.0393 10.3345C31.1219 10.3376 29.9048 12.3107 29.4239 16.1958C29.2031 17.9818 29.2017 22.2366 29.4218 23.798C30.1031 28.6305 31.8615 30.9364 34.3174 30.2172ZM73.2548 30.1745C73.9076 30.0526 74.4145 29.7966 74.9593 29.314C76.3239 28.1044 77.35 25.6072 77.7535 22.5134C77.9181 21.2536 77.8958 18.3823 77.7135 17.3305C77.2208 14.4859 76.1618 12.6164 74.6173 11.8637C73.9763 11.5516 73.8777 11.5293 73.1176 11.5293C72.5739 11.5293 72.1065 11.5868 71.7089 11.7022L71.1138 11.875L71.0696 15.1126C71.0134 19.2598 71.1502 29.6426 71.2651 29.9407C71.3384 30.1306 71.4193 30.171 71.7832 30.1991C72.6343 30.2652 72.7794 30.2631 73.2548 30.1745ZM98.3109 17.4537L99.8745 17.3999L99.8182 16.3054C99.6196 12.4449 98.6612 10.3355 97.1067 10.3369C95.4174 10.3389 94.0674 12.4798 93.5059 16.047C93.4372 16.4854 93.3799 17.0057 93.3788 17.2028L93.3774 17.5608L95.0622 17.5341C95.989 17.5194 97.4508 17.4831 98.3109 17.4537Z" fill="currentColor"></path></svg>