<svg xmlns="http://www.w3.org/2000/svg" viewBox="0 0 166 40" fill="none"><path d="M122.808 23.4883C122.808 25.4924 122.881 25.5491 124.7 25.5491H130.769C131.027 25.5491 131.242 25.7636 131.242 26.0248V27.5551C131.242 27.8912 131.124 28.0126 130.769 28.0572C129.997 28.1786 128.437 28.3912 125.59 28.3912C121.604 28.3912 119.499 28.4175 119.499 23.4863V15.9134C119.499 10.9802 121.604 11.0066 125.59 11.0066C128.437 11.0066 129.995 11.2232 130.769 11.3406C131.124 11.3892 131.242 11.5086 131.242 11.8446V13.373C131.242 13.6361 131.025 13.8547 130.769 13.8547H124.7C122.881 13.8547 122.808 13.9074 122.808 15.9114V18.1037H130.476C130.743 18.1037 130.952 18.3224 130.952 18.5815V20.3082C130.952 20.5693 130.743 20.7859 130.476 20.7859H122.808V23.4883ZM158.239 28.4033C156.121 28.4033 153.975 28.041 152.824 27.7758C152.589 27.7272 152.37 27.5612 152.37 27.2981V25.5754C152.37 25.3122 152.589 25.1199 152.824 25.1199H152.873C153.831 25.2394 156.077 25.5511 158.292 25.5511C160.421 25.5511 161.072 24.79 161.072 23.4013C161.072 21.6058 156.784 20.6118 154.689 19.7515C152.608 18.8892 151.866 17.2414 151.866 15.5653C151.866 12.9317 153.99 11.0167 158.441 11.0167C160.725 11.0167 162.818 11.4499 163.631 11.6483C163.872 11.6968 164.059 11.8628 164.059 12.0997V13.8709C164.059 14.1078 163.896 14.3001 163.653 14.3001H163.607C162.026 14.1584 160.385 13.8689 158.304 13.8689C156.527 13.8689 155.197 14.4883 155.197 15.5653C155.197 16.3527 156.099 17.0794 157.163 17.4985C158.227 17.9155 159.623 18.46 161.218 19.1017C163.232 19.9175 164.543 21.1058 164.543 23.3993C164.541 25.8183 163.033 28.4033 158.239 28.4033ZM145.501 16.4215C145.501 14.626 144.109 13.8608 141.708 13.8608C141.207 13.8608 139.029 13.9094 138.595 13.9539V19.1442C138.982 19.1685 141.307 19.2171 141.708 19.2171C144.178 19.2171 145.501 18.7414 145.501 16.6361V16.4215ZM149.096 28.2029H146.168C145.906 28.2029 145.811 27.962 145.692 27.7232L142.239 21.9215H141.704C141.084 21.9215 139.148 21.8527 138.591 21.8244V27.7232C138.591 27.9863 138.403 28.2029 138.139 28.2029H135.746C135.481 28.2029 135.266 27.9863 135.266 27.7232V12.039C135.266 11.5572 135.55 11.3912 136.03 11.3183C137.276 11.128 139.959 11.0086 141.702 11.0086C145.396 11.0086 148.8 12.3264 148.8 16.4195V16.6361C148.8 19.1705 147.527 20.5592 145.566 21.3203L149.331 27.7252C149.38 27.7981 149.38 27.8649 149.38 27.9195C149.384 28.0815 149.286 28.2029 149.096 28.2029ZM116.561 13.9762H111.78V27.7252C111.78 27.9883 111.559 28.2049 111.294 28.2049H108.925C108.66 28.2049 108.445 27.9883 108.445 27.7252V13.9762H103.661C103.401 13.9762 103.184 13.8143 103.184 13.5491V11.6584C103.184 11.3932 103.401 11.2029 103.661 11.2029H116.561C116.82 11.2029 117.037 11.3932 117.037 11.6584V13.5491C117.037 13.8143 116.82 13.9762 116.561 13.9762ZM93.6241 28.3932C89.7719 28.3932 86.4487 26.7191 86.4487 21.6159V11.6584C86.4487 11.3932 86.6675 11.2029 86.931 11.2029H89.2978C89.5652 11.2029 89.778 11.3932 89.778 11.6584V21.6159C89.778 24.3466 91.0404 25.6402 93.6241 25.6402C96.2158 25.6402 97.4741 24.3466 97.4741 21.6159V11.6584C97.4741 11.3932 97.691 11.2029 97.9524 11.2029H100.323C100.591 11.2029 100.805 11.3932 100.805 11.6584V21.6159C100.808 26.7191 97.4843 28.3932 93.6241 28.3932ZM74.4344 23.4883C74.4344 25.4924 74.5114 25.5491 76.3229 25.5491H82.3878C82.6533 25.5491 82.8681 25.7636 82.8681 26.0248V27.5551C82.8681 27.8912 82.7465 28.0126 82.3878 28.0572C81.6219 28.1786 80.0595 28.3912 77.2105 28.3912C73.2347 28.3912 71.1253 28.4175 71.1253 23.4863V15.9134C71.1253 10.9802 73.2347 11.0066 77.2105 11.0066C80.0595 11.0066 81.6199 11.2232 82.3878 11.3406C82.7485 11.3892 82.8681 11.5086 82.8681 11.8446V13.373C82.8681 13.6361 82.6513 13.8547 82.3878 13.8547H76.3229C74.5114 13.8547 74.4344 13.9074 74.4344 15.9114V18.1037H82.1021C82.3656 18.1037 82.5824 18.3224 82.5824 18.5815V20.3082C82.5824 20.5693 82.3656 20.7859 82.1021 20.7859H74.4344V23.4883ZM64.1647 16.4215C64.1647 14.626 62.7706 13.8608 60.3754 13.8608C59.8688 13.8608 57.6885 13.9094 57.2609 13.9539V19.1442C57.6398 19.1685 59.962 19.2171 60.3754 19.2171C62.8395 19.2171 64.1647 18.7414 64.1647 16.6361V16.4215ZM67.7595 28.2029H64.8334C64.572 28.2029 64.4748 27.962 64.3572 27.7232L60.9043 21.9215H60.3774C59.7513 21.9215 57.8141 21.8527 57.2629 21.8244V27.7232C57.2629 27.9863 57.0684 28.2029 56.805 28.2029H54.4098C54.1484 28.2029 53.9336 27.9863 53.9336 27.7232V12.039C53.9336 11.5572 54.2173 11.3912 54.6996 11.3183C55.9478 11.128 58.6267 11.0086 60.3774 11.0086C64.0654 11.0086 67.4738 12.3264 67.4738 16.4195V16.6361C67.4738 19.1705 66.2032 20.5592 64.2397 21.3203L67.9986 27.7252C68.0472 27.7981 68.0472 27.8649 68.0472 27.9195C68.0452 28.0815 67.95 28.2029 67.7595 28.2029Z" fill="currentColor"></path><path d="M19.6853 13.3819C19.3469 13.5641 19.2273 13.9872 19.4036 14.3212C19.584 14.6633 20.0115 14.7848 20.3499 14.6066C20.6863 14.4224 20.8099 14.0014 20.6296 13.6613C20.506 13.4305 20.2668 13.2949 20.0176 13.2949C19.9041 13.2969 19.7906 13.3252 19.6853 13.3819ZM21.5556 13.4123C21.2517 13.5722 21.1463 13.9467 21.3064 14.2483C21.4644 14.5479 21.8393 14.6613 22.1392 14.4953C22.4452 14.3313 22.5526 13.9588 22.3925 13.6593C22.2831 13.4528 22.0723 13.3354 21.8535 13.3354C21.7522 13.3333 21.6508 13.3597 21.5556 13.4123ZM17.9102 13.9103C17.5292 14.1167 17.3833 14.5945 17.592 14.975C17.7987 15.3576 18.2749 15.5054 18.664 15.2969C19.047 15.0904 19.1868 14.6127 18.9821 14.2321C18.8403 13.9649 18.5688 13.8151 18.2871 13.8151C18.1594 13.8151 18.0297 13.8455 17.9102 13.9103ZM23.351 13.9953C23.0876 14.141 22.9862 14.475 23.1281 14.7342C23.2699 14.9973 23.6043 15.0925 23.8596 14.9487C24.1291 14.807 24.2264 14.4791 24.0805 14.218C23.9832 14.0358 23.7948 13.9325 23.6022 13.9325C23.5151 13.9346 23.43 13.9528 23.351 13.9953ZM16.5018 15.0985C16.1594 15.2868 16.0317 15.6997 16.2182 16.0459C16.4005 16.3799 16.818 16.5074 17.1564 16.3252C17.5009 16.1431 17.6265 15.718 17.4441 15.384C17.3185 15.1512 17.0773 15.0155 16.8281 15.0155C16.7167 15.0135 16.6052 15.0418 16.5018 15.0985ZM24.8951 15.1066C24.6641 15.2321 24.581 15.5115 24.7005 15.7362C24.8221 15.9609 25.1018 16.0418 25.3348 15.9285C25.5577 15.801 25.6468 15.5196 25.5232 15.2929C25.4381 15.139 25.278 15.0479 25.1139 15.0479C25.041 15.0499 24.964 15.0682 24.8951 15.1066ZM26.0359 16.6269C25.8556 16.7321 25.7806 16.971 25.886 17.1552C25.9853 17.3435 26.2203 17.4103 26.4047 17.3111C26.5932 17.2099 26.6641 16.9791 26.5628 16.7908C26.4898 16.6572 26.3561 16.5844 26.2183 16.5844C26.1555 16.5844 26.0947 16.5965 26.0359 16.6269ZM15.4988 16.6754C15.1969 16.8374 15.0875 17.2139 15.2435 17.5135C15.4096 17.8111 15.7845 17.9265 16.0824 17.7645C16.3843 17.6046 16.4998 17.2281 16.3357 16.9244C16.2222 16.72 16.0074 16.6026 15.7886 16.6026C15.6913 16.6026 15.592 16.6269 15.4988 16.6754ZM26.6155 18.2888C26.3865 18.4082 26.3014 18.6937 26.427 18.9184C26.5445 19.1431 26.8303 19.2261 27.0491 19.1107C27.2781 18.9791 27.3652 18.6957 27.2457 18.475C27.1605 18.3192 27.0005 18.2321 26.8363 18.2321C26.7593 18.2321 26.6864 18.2524 26.6155 18.2888ZM15.0064 18.5014C14.747 18.641 14.6518 18.969 14.7896 19.2301C14.9355 19.4973 15.2617 19.5925 15.5252 19.4508C15.7866 19.307 15.8858 18.975 15.744 18.718C15.6467 18.5378 15.4603 18.4346 15.2678 18.4346C15.1807 18.4325 15.0895 18.4528 15.0064 18.5014ZM26.6195 20.052C26.3541 20.1977 26.2608 20.5216 26.3966 20.7888C26.5364 21.0459 26.8748 21.1431 27.1362 21.0034C27.3976 20.8597 27.4929 20.5317 27.351 20.2706C27.2538 20.0884 27.0694 19.9872 26.8769 19.9872C26.7897 19.9872 26.7026 20.0074 26.6195 20.052ZM15.0854 20.3941C14.8625 20.5176 14.7774 20.801 14.901 21.0256C15.0226 21.2544 15.3063 21.3333 15.5272 21.2078C15.7541 21.0925 15.8453 20.805 15.7176 20.5823C15.6305 20.4285 15.4725 20.3394 15.3063 20.3394C15.2313 20.3394 15.1543 20.3576 15.0854 20.3941ZM26.0582 21.7362C25.7563 21.8941 25.6448 22.2787 25.8049 22.5783C25.9711 22.8759 26.3439 22.9892 26.6398 22.8273C26.9478 22.6613 27.0552 22.2908 26.8971 21.9872C26.7857 21.7807 26.5729 21.6613 26.352 21.6613C26.2527 21.6613 26.1514 21.6856 26.0582 21.7362ZM15.7339 22.1896C15.5434 22.2888 15.4765 22.5236 15.5778 22.718C15.6791 22.9022 15.9102 22.973 16.1027 22.8738C16.2891 22.7686 16.36 22.5337 16.2567 22.3455C16.1857 22.218 16.05 22.1431 15.9122 22.1431C15.8514 22.1451 15.7906 22.1593 15.7339 22.1896ZM24.9802 23.1754C24.6397 23.3576 24.5161 23.7827 24.6985 24.1167C24.8789 24.4548 25.3003 24.5803 25.6428 24.3961C25.9812 24.22 26.1048 23.7929 25.9224 23.4568C25.7948 23.224 25.5557 23.0904 25.3084 23.0904C25.197 23.0904 25.0855 23.1188 24.9802 23.1754ZM16.8078 23.5783C16.5829 23.6957 16.4978 23.9811 16.6194 24.2038C16.7389 24.4305 17.0206 24.5135 17.2455 24.388C17.4684 24.2726 17.5535 23.9912 17.434 23.7645C17.3509 23.6107 17.1908 23.5256 17.0267 23.5256C16.9537 23.5236 16.8788 23.5418 16.8078 23.5783ZM23.4746 24.2078C23.0936 24.4123 22.9457 24.89 23.1585 25.2746C23.3652 25.6552 23.8454 25.7969 24.2304 25.5945C24.6114 25.3839 24.7552 24.9042 24.5486 24.5297C24.4047 24.2645 24.1332 24.1107 23.8515 24.1107C23.7238 24.1086 23.5941 24.139 23.4746 24.2078ZM18.281 24.5499C18.0115 24.6957 17.9163 25.0196 18.0622 25.2827C18.1979 25.5459 18.5303 25.6471 18.7937 25.5054C19.0571 25.3576 19.1564 25.0256 19.0125 24.7665C18.9132 24.5884 18.7248 24.4852 18.5343 24.4852C18.4492 24.4831 18.3621 24.5034 18.281 24.5499ZM21.7907 24.8961C21.4502 25.0763 21.3327 25.4973 21.5171 25.8394C21.6934 26.1754 22.1149 26.307 22.4553 26.1188C22.7957 25.9406 22.9173 25.5155 22.737 25.1795C22.6093 24.9467 22.3702 24.8151 22.123 24.8151C22.0095 24.8131 21.896 24.8394 21.7907 24.8961ZM19.9953 25.0034C19.6954 25.1653 19.588 25.5439 19.7461 25.8414C19.9122 26.1431 20.2851 26.2564 20.587 26.0945C20.891 25.9366 21.0024 25.558 20.8383 25.2544C20.7289 25.0479 20.5141 24.9325 20.2912 24.9325C20.1919 24.9325 20.0885 24.9548 19.9953 25.0034Z" fill="currentColor"></path><path d="M19.9925 11.4827C19.8547 11.9503 20.1202 12.4381 20.5903 12.5798C21.0584 12.7175 21.5467 12.4462 21.6886 11.9827C21.8284 11.515 21.5609 11.0211 21.0928 10.8835C21.0077 10.8592 20.9226 10.847 20.8395 10.847C20.4565 10.849 20.108 11.1001 19.9925 11.4827ZM22.3613 11.7681C22.2033 12.3086 22.5032 12.8673 23.0483 13.0272C23.5853 13.1871 24.1486 12.8814 24.3066 12.345C24.4687 11.8025 24.1607 11.2357 23.6197 11.0778C23.5245 11.0495 23.4292 11.0373 23.334 11.0373C22.8943 11.0393 22.491 11.3268 22.3613 11.7681ZM17.6156 11.9746C17.494 12.3916 17.7351 12.8268 18.1526 12.9503C18.5659 13.0717 19.0057 12.8369 19.1272 12.4179C19.2448 12.0049 19.0057 11.5677 18.5943 11.4442C18.5213 11.4219 18.4484 11.4138 18.3755 11.4138C18.033 11.4118 17.7189 11.6345 17.6156 11.9746ZM24.7585 12.8855C24.6207 13.3511 24.8902 13.843 25.3583 13.9806C25.8264 14.1183 26.3188 13.847 26.4566 13.3794C26.5964 12.9138 26.329 12.4219 25.8588 12.2822C25.7758 12.258 25.6906 12.2458 25.6096 12.2458C25.2266 12.2458 24.874 12.4988 24.7585 12.8855ZM15.573 13.2276C15.4757 13.5576 15.6622 13.8976 15.9924 13.9968C16.3207 14.092 16.6652 13.9017 16.7604 13.5758C16.8557 13.2499 16.6672 12.9057 16.341 12.8086C16.2822 12.7924 16.2235 12.7843 16.1667 12.7843C15.8972 12.7822 15.652 12.9584 15.573 13.2276ZM26.6775 14.6325C26.5539 15.0535 26.795 15.4867 27.2084 15.6082C27.6258 15.7296 28.0595 15.4887 28.1851 15.0717C28.3087 14.6588 28.0716 14.2235 27.6522 14.1021C27.5792 14.0798 27.5042 14.0697 27.4313 14.0697C27.0949 14.0717 26.7829 14.2924 26.6775 14.6325ZM13.956 15.0839C13.8769 15.347 14.0309 15.6264 14.2964 15.7013C14.5618 15.7782 14.8374 15.6284 14.9185 15.3652C15.0016 15.1021 14.8435 14.8248 14.5801 14.7438C14.5335 14.7316 14.4889 14.7256 14.4443 14.7256C14.2234 14.7235 14.0208 14.8612 13.956 15.0839ZM28.0433 16.8835C27.944 17.2175 28.1385 17.5596 28.4627 17.6527C28.793 17.7499 29.1355 17.5616 29.2307 17.2337C29.328 16.9057 29.1415 16.5616 28.8133 16.4685C28.7545 16.4503 28.6937 16.4422 28.635 16.4422C28.3675 16.4422 28.1203 16.6183 28.0433 16.8835ZM13.0056 17.3875C12.9468 17.5879 13.0562 17.7984 13.2548 17.8571C13.4554 17.9159 13.6621 17.7984 13.7209 17.6001C13.7797 17.4037 13.6662 17.1952 13.4656 17.1365C13.4291 17.1264 13.3946 17.1223 13.3602 17.1223C13.2001 17.1203 13.0522 17.2256 13.0056 17.3875ZM28.6228 19.3875C28.5417 19.6486 28.6937 19.932 28.9632 20.0069C29.2287 20.0859 29.5043 19.9341 29.5853 19.6669C29.6623 19.4057 29.5144 19.1264 29.2449 19.0474C29.1983 19.0353 29.1517 19.0272 29.1051 19.0272C28.8862 19.0252 28.6836 19.1689 28.6228 19.3875ZM12.5557 19.841C12.4767 20.1061 12.6327 20.3814 12.8982 20.4604C13.1636 20.5393 13.4392 20.3895 13.5203 20.1223C13.5993 19.8592 13.4473 19.5798 13.1819 19.5009C13.1353 19.4887 13.0887 19.4806 13.0421 19.4806C12.8252 19.4806 12.6246 19.6244 12.5557 19.841ZM28.4181 21.9118C28.3634 22.1082 28.4749 22.3187 28.6694 22.3754C28.872 22.4341 29.0767 22.3227 29.1334 22.1203C29.1942 21.926 29.0828 21.7154 28.8801 21.6567C28.8457 21.6466 28.8133 21.6426 28.7788 21.6426C28.6187 21.6426 28.4668 21.7499 28.4181 21.9118ZM12.9144 22.2782C12.8212 22.6041 12.9995 22.9503 13.3318 23.0454C13.6581 23.1446 14.0025 22.9523 14.0978 22.6244C14.1951 22.2964 14.0066 21.9523 13.6804 21.8632C13.6196 21.845 13.5588 21.8369 13.498 21.8369C13.2325 21.8349 12.9894 22.011 12.9144 22.2782ZM27.2226 24.1446C27.1476 24.4118 27.2976 24.6912 27.559 24.7661C27.8285 24.845 28.1081 24.6932 28.1851 24.428C28.2601 24.1669 28.1101 23.8835 27.8447 23.8045C27.7981 23.7924 27.7515 23.7843 27.7049 23.7843C27.4901 23.7843 27.2894 23.926 27.2226 24.1446ZM13.9539 24.4341C13.8303 24.849 14.0674 25.2843 14.4848 25.4098C14.9063 25.5333 15.3379 25.2944 15.4636 24.8794C15.5852 24.4644 15.342 24.0231 14.9266 23.8997C14.8516 23.8774 14.7786 23.8673 14.7057 23.8673C14.3673 23.8673 14.0573 24.0899 13.9539 24.4341ZM25.3806 25.9341C25.2874 26.26 25.4779 26.6041 25.8041 26.7013C26.1304 26.7984 26.4749 26.6102 26.5681 26.2863C26.6674 25.9563 26.4809 25.6122 26.1527 25.5171C26.0939 25.4988 26.0331 25.4907 25.9743 25.4907C25.7069 25.4907 25.4617 25.6689 25.3806 25.9341ZM15.6885 26.1345C15.5527 26.598 15.8141 27.0879 16.2863 27.2276C16.7584 27.3632 17.2468 27.094 17.3866 26.6304C17.5224 26.1669 17.2549 25.6709 16.7848 25.5333C16.6996 25.509 16.6166 25.4968 16.5355 25.4968C16.1505 25.4968 15.802 25.7478 15.6885 26.1345ZM17.8324 27.1669C17.6764 27.7094 17.9783 28.2701 18.5214 28.43C19.0583 28.5839 19.6278 28.2742 19.7797 27.7418C19.9378 27.2013 19.6338 26.6365 19.0908 26.4786C18.9955 26.4523 18.9003 26.4381 18.805 26.4381C18.3653 26.4381 17.9601 26.7256 17.8324 27.1669ZM23.0138 27.092C22.8922 27.509 23.1334 27.9462 23.5467 28.0677C23.9662 28.1891 24.4019 27.9543 24.5235 27.5353C24.645 27.1223 24.41 26.6851 23.9905 26.5636C23.9155 26.5393 23.8406 26.5292 23.7676 26.5292C23.4272 26.5292 23.1131 26.7519 23.0138 27.092ZM20.4505 27.5312C20.3147 27.9948 20.5842 28.4827 21.0503 28.6223C21.5204 28.764 22.0128 28.4948 22.1465 28.0292C22.2803 27.5596 22.0189 27.0677 21.5487 26.932C21.4636 26.9078 21.3806 26.8956 21.2975 26.8956C20.9165 26.8956 20.5639 27.1446 20.4505 27.5312Z" fill="currentColor"></path><path d="M21.6938 8.45226C21.3128 8.85712 21.3311 9.49477 21.7384 9.87534C22.1436 10.2579 22.782 10.2397 23.1609 9.83485C23.5439 9.42797 23.5216 8.79437 23.1183 8.40975C22.9238 8.22756 22.6766 8.1385 22.4294 8.1385C22.1619 8.1385 21.8924 8.24376 21.6938 8.45226ZM18.5023 8.69922C18.2024 9.01906 18.2165 9.51906 18.5367 9.82271C18.8549 10.1203 19.3574 10.1041 19.6593 9.78627C19.9572 9.46846 19.943 8.96441 19.6249 8.66481C19.4709 8.52109 19.2763 8.45024 19.0818 8.45024C18.869 8.45226 18.6583 8.53526 18.5023 8.69922ZM24.8205 9.30246C24.3909 9.75591 24.4091 10.4705 24.8651 10.9017C25.319 11.3308 26.0424 11.3085 26.4679 10.8571C26.8955 10.4017 26.8772 9.68303 26.4213 9.25591C26.2004 9.04943 25.9208 8.94619 25.6412 8.94619C25.3433 8.94416 25.0434 9.06562 24.8205 9.30246ZM15.4566 9.92999C15.2135 10.1871 15.2256 10.5899 15.483 10.8369C15.7423 11.0778 16.1496 11.0676 16.3928 10.8085C16.636 10.5515 16.6238 10.1446 16.3665 9.90368C16.2408 9.78829 16.0828 9.72959 15.9247 9.72959C15.7525 9.72959 15.5843 9.79639 15.4566 9.92999ZM27.4669 11.0737C26.9705 11.596 26.9907 12.4158 27.5176 12.9118C28.0404 13.4098 28.8671 13.3814 29.3595 12.8632C29.854 12.3349 29.8297 11.511 29.3069 11.017C29.0536 10.7802 28.7334 10.6628 28.4153 10.6628C28.0687 10.6628 27.7222 10.8004 27.4669 11.0737ZM12.9277 12.0919C12.7454 12.2863 12.7535 12.5859 12.946 12.768C13.1425 12.9523 13.4444 12.9421 13.6228 12.7498C13.8051 12.5555 13.795 12.2539 13.6045 12.0717C13.5093 11.9867 13.3897 11.9442 13.2722 11.9442C13.1466 11.9421 13.0209 11.9927 12.9277 12.0919ZM29.6392 13.8369C29.2096 14.2903 29.2278 15.0089 29.6878 15.4381C30.1458 15.8672 30.8631 15.8409 31.2886 15.3895C31.7203 14.932 31.7 14.2195 31.24 13.7863C31.0232 13.5818 30.7456 13.4806 30.468 13.4806C30.164 13.4806 29.8621 13.6 29.6392 13.8369ZM10.9196 14.7417C10.6744 14.9988 10.6886 15.4037 10.948 15.6486C11.2053 15.8895 11.6106 15.8794 11.8558 15.6243C12.0949 15.3672 12.0848 14.9624 11.8274 14.7195C11.7038 14.6021 11.5457 14.5434 11.3877 14.5434C11.2175 14.5413 11.0473 14.6102 10.9196 14.7417ZM30.857 17.0737C30.474 17.4786 30.4943 18.1162 30.9016 18.4968C31.3069 18.8814 31.9472 18.8591 32.3261 18.4543C32.7091 18.0515 32.6889 17.4138 32.2836 17.0332C32.0891 16.849 31.8398 16.7579 31.5906 16.7579C31.3231 16.7559 31.0556 16.8632 30.857 17.0737ZM9.87196 17.8551C9.57611 18.1749 9.58421 18.6729 9.90641 18.9725C10.2245 19.2741 10.7271 19.2559 11.029 18.9401C11.3289 18.6223 11.3107 18.1162 10.9966 17.8187C10.8406 17.6729 10.644 17.6021 10.4495 17.6021C10.2387 17.6041 10.028 17.6871 9.87196 17.8551ZM31.1123 20.5656C30.8124 20.8834 30.8307 21.3855 31.1488 21.6851C31.471 21.9887 31.9695 21.9705 32.2714 21.6506C32.5713 21.3328 32.5612 20.8328 32.237 20.5312C32.085 20.3875 31.8905 20.3166 31.6939 20.3166C31.4811 20.3187 31.2684 20.4017 31.1123 20.5656ZM9.81523 21.0515C9.4363 21.4543 9.45453 22.094 9.8598 22.4745C10.2651 22.8591 10.9034 22.8389 11.2843 22.434C11.6653 22.0312 11.6471 21.3936 11.2418 21.0069C11.0473 20.8247 10.8 20.7336 10.5528 20.7336C10.2833 20.7336 10.0158 20.8409 9.81523 21.0515ZM30.2876 23.8834C30.0424 24.1405 30.0546 24.5474 30.314 24.7944C30.5754 25.0373 30.9806 25.0251 31.2258 24.762C31.467 24.5049 31.4568 24.098 31.1995 23.8551C31.0738 23.7397 30.9158 23.683 30.7577 23.681C30.5855 23.681 30.4153 23.7478 30.2876 23.8834ZM10.8548 24.1183C10.4252 24.5697 10.4393 25.2863 10.8973 25.7195C11.3573 26.1466 12.0746 26.1223 12.5002 25.6709C12.9298 25.2174 12.9075 24.4968 12.4536 24.0717C12.2347 23.8652 11.9571 23.762 11.6815 23.762C11.3816 23.76 11.0777 23.8834 10.8548 24.1183ZM12.7818 26.6466C12.2894 27.177 12.3137 27.9907 12.8386 28.4887C13.3614 28.9826 14.1881 28.9604 14.6785 28.434C15.1729 27.9098 15.1486 27.0899 14.6238 26.5919C14.3705 26.3551 14.0503 26.2377 13.7302 26.2377C13.3837 26.2357 13.0371 26.3733 12.7818 26.6466ZM28.5166 26.762C28.3362 26.9543 28.3464 27.2579 28.5368 27.4381C28.7314 27.6162 29.0333 27.6081 29.2136 27.4138C29.396 27.2255 29.3879 26.9199 29.1934 26.7417C29.1022 26.6547 28.9847 26.6102 28.8651 26.6102H28.8631C28.7354 26.6102 28.6098 26.6608 28.5166 26.762ZM15.6714 28.6547C15.2439 29.1021 15.2641 29.8207 15.7221 30.2539C16.178 30.683 16.8974 30.6608 17.3229 30.2053C17.7505 29.7498 17.7343 29.0332 17.2763 28.6041C17.0575 28.3976 16.7778 28.2964 16.5002 28.2964C16.1963 28.2964 15.8964 28.4158 15.6714 28.6547ZM25.7506 28.6972C25.5054 28.9543 25.5175 29.3632 25.7749 29.6041C26.0363 29.849 26.4416 29.8349 26.6847 29.5757C26.9279 29.3207 26.9178 28.9158 26.6584 28.6709C26.5348 28.5535 26.3747 28.4948 26.2166 28.4948C26.0464 28.4968 25.8762 28.5636 25.7506 28.6972ZM18.9785 29.6709C18.5975 30.0737 18.6157 30.7154 19.023 31.0919C19.4324 31.4766 20.0666 31.4583 20.4455 31.0535C20.8285 30.6506 20.8123 30.011 20.407 29.6304C20.2125 29.4462 19.9653 29.3551 19.7161 29.3551C19.4445 29.3571 19.177 29.4624 18.9785 29.6709ZM22.4841 29.7215C22.1862 30.0373 22.2004 30.5393 22.5185 30.8409C22.8387 31.1425 23.3412 31.1223 23.6411 30.8065C23.941 30.4907 23.9289 29.9867 23.6087 29.6871C23.4547 29.5434 23.2581 29.4725 23.0656 29.4725C22.8529 29.4725 22.6401 29.5555 22.4841 29.7215Z" fill="currentColor"></path><path d="M22.5381 4.89377C22.0639 4.98891 21.7579 5.44235 21.8531 5.91806C21.9484 6.3877 22.4063 6.69336 22.8785 6.60025C23.3506 6.5051 23.6566 6.04762 23.5614 5.57596C23.4783 5.16098 23.1156 4.87555 22.7083 4.87555C22.6556 4.87757 22.5968 4.88365 22.5381 4.89377ZM18.925 5.13264C18.5542 5.18932 18.2969 5.53142 18.3496 5.90389C18.4063 6.27636 18.7528 6.53142 19.1236 6.47676C19.4945 6.42211 19.7538 6.07798 19.6991 5.70551C19.6505 5.36745 19.3587 5.12454 19.0243 5.12454C18.9919 5.12454 18.9595 5.12656 18.925 5.13264ZM26.0193 5.63061C25.456 5.77434 25.1115 6.34721 25.2574 6.91401C25.4033 7.47676 25.9788 7.82089 26.5422 7.67514C27.1055 7.53142 27.4479 6.9545 27.3041 6.39377C27.1805 5.91401 26.7529 5.60025 26.2807 5.60025C26.1977 5.59822 26.1085 5.60835 26.0193 5.63061ZM15.2289 6.22778C14.9068 6.36543 14.7568 6.73587 14.8966 7.05976C15.0344 7.3796 15.4093 7.52737 15.7295 7.38972C16.0496 7.25207 16.2016 6.87757 16.0618 6.55976C15.9584 6.31887 15.7254 6.17717 15.4802 6.17717C15.3992 6.17515 15.312 6.19337 15.2289 6.22778ZM29.1055 7.19134C28.4125 7.40794 28.0214 8.14276 28.2403 8.83911C28.455 9.53142 29.1967 9.91806 29.8897 9.70146C30.5848 9.48486 30.9698 8.74599 30.7529 8.05369C30.5766 7.49093 30.0599 7.13061 29.5006 7.13061C29.371 7.13061 29.2372 7.15085 29.1055 7.19134ZM11.8935 8.16098C11.5997 8.39377 11.5491 8.82089 11.7821 9.11644C12.0171 9.41199 12.4467 9.46057 12.7385 9.22778C13.0344 8.99296 13.0871 8.56786 12.852 8.27231C12.7163 8.10227 12.5197 8.01523 12.3191 8.01523C12.1691 8.01523 12.0192 8.06381 11.8935 8.16098ZM31.6405 9.64681C30.8867 9.92616 30.5017 10.7561 30.7813 11.5112C31.061 12.2642 31.8958 12.6468 32.6456 12.3695C33.3974 12.0921 33.7824 11.2561 33.5048 10.5051C33.2859 9.91806 32.7327 9.55774 32.1451 9.55774C31.9769 9.55571 31.8067 9.58608 31.6405 9.64681ZM9.24306 10.6225C8.84994 10.9019 8.7547 11.4403 9.03434 11.8371C9.31398 12.2278 9.85704 12.3209 10.2481 12.0436C10.6412 11.7642 10.7345 11.2197 10.4569 10.831C10.2866 10.5901 10.0171 10.4626 9.74559 10.4626C9.57335 10.4626 9.39706 10.5132 9.24306 10.6225ZM33.4055 12.7217C32.603 13.0679 32.2322 13.9909 32.5787 14.7946C32.9232 15.5942 33.8533 15.9646 34.6537 15.6205C35.4541 15.2743 35.8249 14.3452 35.4784 13.5456C35.2211 12.9484 34.6395 12.5921 34.0296 12.5921C33.8209 12.5921 33.6081 12.6347 33.4055 12.7217ZM7.3869 13.6549C6.89652 13.9666 6.74657 14.6164 7.06066 15.1104C7.37069 15.6023 8.02521 15.75 8.51559 15.4403C9.01002 15.1286 9.15592 14.4747 8.84386 13.9808C8.64325 13.663 8.30282 13.4909 7.95226 13.4909C7.75976 13.4909 7.56319 13.5456 7.3869 13.6549ZM34.3923 16.412C33.675 16.7662 33.3791 17.6367 33.7358 18.3533C34.0944 19.076 34.9637 19.3654 35.6811 19.0092C36.3984 18.6549 36.6943 17.7885 36.3376 17.0679C36.0843 16.5577 35.5676 16.2622 35.0326 16.2622C34.8178 16.2622 34.599 16.3108 34.3923 16.412ZM6.40614 16.9727C5.77189 17.327 5.54696 18.1266 5.9036 18.7622C6.25821 19.3938 7.06066 19.6205 7.69491 19.2642C8.32916 18.91 8.55409 18.1063 8.19745 17.4727C7.95631 17.0436 7.51051 16.8027 7.05053 16.8027C6.83371 16.8027 6.61081 16.8553 6.40614 16.9727ZM34.4409 20.246C33.8087 20.6002 33.5818 21.4039 33.9384 22.0375C34.295 22.6731 35.0975 22.8938 35.7297 22.5375C36.364 22.1812 36.5909 21.3836 36.2322 20.748C35.9911 20.3189 35.5453 20.076 35.0853 20.076C34.8685 20.076 34.6456 20.1326 34.4409 20.246ZM6.4568 20.499C5.7415 20.8513 5.4416 21.7197 5.80026 22.4403C6.1569 23.159 7.03026 23.4504 7.7476 23.0962C8.46493 22.7419 8.76078 21.8715 8.40414 21.1549C8.14882 20.6407 7.64019 20.3472 7.10726 20.3472C6.88639 20.3472 6.66349 20.3958 6.4568 20.499ZM7.48619 23.8897C6.68577 24.2338 6.31293 25.159 6.65944 25.9646C7.00392 26.7662 7.93808 27.1326 8.73647 26.7885C9.53688 26.4424 9.90568 25.5132 9.55917 24.7136C9.30182 24.1164 8.72025 23.7622 8.11031 23.7622C7.9016 23.7602 7.68883 23.8007 7.48619 23.8897ZM33.6223 24.0699C33.1299 24.3836 32.982 25.0334 33.294 25.5253C33.6061 26.0193 34.2586 26.163 34.751 25.8533C35.2414 25.5415 35.3913 24.8938 35.0772 24.3978C34.8766 24.08 34.5321 23.9079 34.1836 23.9079C33.9911 23.9059 33.7966 23.9585 33.6223 24.0699ZM9.49027 27.1407C8.74051 27.4201 8.35348 28.2541 8.63312 29.0031C8.91276 29.7602 9.74965 30.1387 10.4974 29.8594C11.2512 29.58 11.6362 28.7521 11.3566 27.995C11.1397 27.412 10.5845 27.0496 9.99483 27.0496C9.82664 27.0496 9.65643 27.08 9.49027 27.1407ZM31.8877 27.4666C31.4946 27.746 31.4014 28.2885 31.679 28.6812C31.9607 29.076 32.5017 29.167 32.8968 28.8897C33.2879 28.6124 33.3811 28.0699 33.1015 27.6731C32.9313 27.4343 32.6618 27.3067 32.3882 27.3067C32.216 27.3067 32.0397 27.3573 31.8877 27.4666ZM12.2482 29.8087C11.5551 30.0233 11.1681 30.7602 11.3869 31.4545C11.6038 32.1529 12.3393 32.5355 13.0324 32.3168C13.7274 32.1023 14.1165 31.3675 13.8996 30.6731C13.7234 30.1104 13.2026 29.748 12.6413 29.748C12.5096 29.748 12.3778 29.7683 12.2482 29.8087ZM29.3993 30.2804C29.1055 30.5152 29.0548 30.9424 29.2879 31.2359C29.5209 31.5334 29.9505 31.578 30.2443 31.3472C30.5402 31.1124 30.5908 30.6873 30.3558 30.3897C30.222 30.2197 30.0235 30.1326 29.8228 30.1326C29.6749 30.1347 29.525 30.1812 29.3993 30.2804ZM15.5957 31.8371C15.0324 31.9808 14.692 32.5537 14.8358 33.1185C14.9797 33.6873 15.5532 34.0233 16.1185 33.8796C16.6839 33.7338 17.0263 33.165 16.8825 32.5982C16.7609 32.1205 16.3313 31.8047 15.8591 31.8047C15.772 31.8047 15.6849 31.8128 15.5957 31.8371ZM26.4064 32.1205C26.0862 32.2561 25.9363 32.6306 26.0761 32.9504C26.2159 33.2743 26.5888 33.4201 26.9089 33.2824C27.2311 33.1448 27.3811 32.7703 27.2413 32.4484C27.1379 32.2096 26.9028 32.0658 26.6577 32.0658C26.5746 32.0679 26.4915 32.0841 26.4064 32.1205ZM19.2574 32.9079C18.7852 33.0031 18.4792 33.4626 18.5745 33.9322C18.6697 34.4059 19.1297 34.7116 19.6018 34.6164C20.072 34.5193 20.38 34.0638 20.2847 33.5881C20.2017 33.1751 19.8369 32.8897 19.4296 32.8897C19.3729 32.8897 19.3161 32.8958 19.2574 32.9079ZM23.0142 33.0314C22.6434 33.0861 22.3861 33.4322 22.4408 33.8047C22.4955 34.1772 22.842 34.4322 23.2128 34.3776C23.5857 34.3229 23.8451 33.9788 23.7883 33.6063C23.7397 33.2662 23.4459 33.0233 23.1115 33.0233C23.0811 33.0233 23.0467 33.0253 23.0142 33.0314Z" fill="currentColor"></path><path d="M20.2557 1.69697C20.2557 2.14636 20.6205 2.50871 21.0663 2.50871C21.5161 2.50871 21.8809 2.14636 21.8809 1.69697C21.8809 1.24555 21.5161 0.887253 21.0663 0.887253C20.6205 0.887253 20.2557 1.24555 20.2557 1.69697ZM24.9042 2.08563C24.7786 2.55325 25.0562 3.02895 25.5202 3.15244C25.9863 3.27794 26.4665 3.00264 26.5901 2.53705C26.7158 2.07146 26.4361 1.59576 25.9701 1.47025C25.8951 1.45001 25.8181 1.43988 25.7431 1.43988C25.3601 1.44191 25.0096 1.69697 24.9042 2.08563ZM16.1645 1.47227C15.7004 1.59575 15.4208 2.07146 15.5464 2.53705C15.67 3.00264 16.1523 3.27794 16.6143 3.15244C17.0804 3.02895 17.358 2.55122 17.2344 2.08361C17.129 1.69495 16.7785 1.43988 16.3935 1.43988C16.3185 1.44191 16.2415 1.45 16.1645 1.47227ZM29.0157 3.87915C28.888 4.4824 29.2731 5.07551 29.8749 5.20304C30.4787 5.33057 31.0704 4.94596 31.2001 4.34677C31.3298 3.73948 30.9428 3.15041 30.3409 3.0249C30.2619 3.00871 30.1829 3.00061 30.1039 3.00061C29.5892 2.99859 29.1271 3.35486 29.0157 3.87915ZM11.7956 3.02288C11.1938 3.15041 10.8068 3.73948 10.9344 4.34677C11.0621 4.94798 11.6558 5.3326 12.2576 5.20304C12.8615 5.07551 13.2465 4.4824 13.1189 3.87915C13.0074 3.35486 12.5454 2.99859 12.0307 2.99859C11.9537 2.99859 11.8747 3.00466 11.7956 3.02288ZM32.5152 6.77389C32.3977 7.51073 32.9023 8.20506 33.6399 8.32247C34.3734 8.43988 35.0705 7.93381 35.186 7.19697C35.3035 6.45608 34.7969 5.76984 34.0634 5.65041C33.9904 5.64029 33.9195 5.63422 33.8486 5.63422C33.1941 5.63422 32.6206 6.10588 32.5152 6.77389ZM8.07522 5.65041C7.33965 5.76782 6.83509 6.45406 6.95262 7.19495C7.06812 7.93179 7.76113 8.43583 8.49872 8.32045C9.23835 8.20304 9.74293 7.50871 9.6254 6.77187C9.52003 6.10385 8.94453 5.63219 8.29204 5.63219C8.21909 5.63422 8.14817 5.63826 8.07522 5.65041ZM35.0441 10.5492C34.9469 11.4743 35.6217 12.3043 36.5457 12.4014C37.4738 12.4986 38.3025 11.8265 38.3978 10.9014C38.495 9.97227 37.8243 9.14636 36.8983 9.04919C36.8375 9.04312 36.7787 9.0411 36.7199 9.0411C35.8709 9.0411 35.1353 9.68077 35.0441 10.5492ZM5.23831 9.04919C4.31023 9.14636 3.6395 9.97227 3.73879 10.9014C3.83606 11.8265 4.66282 12.4986 5.59089 12.4014C6.51694 12.3043 7.1897 11.4743 7.09244 10.5492C7.00125 9.68077 6.26973 9.0411 5.41866 9.0411C5.35787 9.0411 5.29707 9.0411 5.23831 9.04919ZM36.6774 14.9804C36.6247 16.0047 37.4109 16.8792 38.4343 16.9338C39.4616 16.9864 40.339 16.201 40.3917 15.1747C40.4464 14.1464 39.6541 13.2779 38.6328 13.2233C38.5984 13.2213 38.5639 13.2213 38.5315 13.2213C37.5487 13.2213 36.7301 13.9844 36.6774 14.9804ZM3.50374 13.2253C2.48447 13.2779 1.69217 14.1464 1.74485 15.1767C1.79956 16.201 2.67698 16.9885 3.70232 16.9358C4.72766 16.8812 5.51389 16.0067 5.4612 14.9824C5.40852 13.9864 4.58987 13.2233 3.60506 13.2233C3.57263 13.2213 3.53616 13.2233 3.50374 13.2253ZM37.1212 19.7516C37.1212 20.869 38.0249 21.7759 39.1415 21.7759C40.26 21.7759 41.1658 20.869 41.1658 19.7536C41.1658 18.6302 40.26 17.7334 39.1455 17.7334C38.0249 17.7334 37.1212 18.6302 37.1212 19.7516ZM0.96875 19.7536C0.96875 20.869 1.87859 21.7759 2.99512 21.7759C4.10962 21.7759 5.01338 20.869 5.01338 19.7516C5.01338 18.6302 4.10962 17.7354 2.99512 17.7354C1.87859 17.7334 0.96875 18.6302 0.96875 19.7536ZM38.4322 22.5735C37.4109 22.6261 36.6227 23.5006 36.6754 24.5249C36.7281 25.5553 37.6034 26.3346 38.6308 26.282C39.6521 26.2294 40.4424 25.363 40.3897 24.3306C40.339 23.3407 39.5143 22.5715 38.5315 22.5715C38.4971 22.5715 38.4646 22.5715 38.4322 22.5735ZM1.74688 24.3306C1.69419 25.363 2.48448 26.2294 3.50577 26.282C4.53313 26.3346 5.40852 25.5573 5.46323 24.5249C5.51794 23.5006 4.72969 22.6261 3.70435 22.5735C3.67192 22.5715 3.63951 22.5715 3.60708 22.5715C2.62227 22.5715 1.79754 23.3407 1.74688 24.3306ZM36.5457 27.1079C35.6217 27.2051 34.9469 28.035 35.0441 28.9601C35.1414 29.8893 35.9742 30.5553 36.8983 30.4581C37.8243 30.3609 38.4971 29.537 38.3978 28.6079C38.3066 27.7415 37.5771 27.0998 36.724 27.0998C36.6652 27.0978 36.6044 27.0998 36.5457 27.1079ZM3.73879 28.6059C3.64152 29.535 4.31226 30.3589 5.23831 30.4561C6.16436 30.5532 6.99517 29.8873 7.09041 28.9581C7.18768 28.033 6.51491 27.203 5.58886 27.1059C5.52807 27.0978 5.46931 27.0958 5.41054 27.0958C4.55947 27.0978 3.82998 27.7415 3.73879 28.6059ZM33.6399 31.1889C32.9023 31.3063 32.3957 31.9966 32.5152 32.7354C32.6328 33.4763 33.3258 33.9743 34.0634 33.8589C34.799 33.7415 35.3055 33.0553 35.186 32.3124C35.0806 31.6464 34.5031 31.1727 33.8506 31.1727C33.7817 31.1707 33.7108 31.1767 33.6399 31.1889ZM6.95262 32.3103C6.83509 33.0532 7.33762 33.7395 8.07522 33.8569C8.81485 33.9743 9.50584 33.4763 9.6254 32.7334C9.74293 31.9966 9.23835 31.3063 8.49872 31.1889C8.4278 31.1767 8.35486 31.1727 8.28596 31.1727C7.63144 31.1727 7.05799 31.6464 6.95262 32.3103ZM29.8749 34.3043C29.271 34.4318 28.886 35.0249 29.0157 35.6281C29.1434 36.2334 29.7371 36.616 30.3409 36.4885C30.9428 36.3609 31.3298 35.7698 31.2001 35.1626C31.0887 34.6403 30.6246 34.28 30.1079 34.28C30.0329 34.28 29.9539 34.2881 29.8749 34.3043ZM10.9365 35.1626C10.8068 35.7698 11.1938 36.3589 11.7956 36.4885C12.3975 36.616 12.9912 36.2314 13.1189 35.6281C13.2465 35.0269 12.8615 34.4318 12.2597 34.3043C12.1827 34.2881 12.1036 34.28 12.0287 34.28C11.5119 34.28 11.0479 34.6403 10.9365 35.1626ZM25.5202 36.3549C25.0562 36.4804 24.7786 36.9581 24.9022 37.4237C25.0278 37.8873 25.506 38.1626 25.9701 38.037C26.4361 37.9136 26.7158 37.4379 26.5901 36.9702C26.4868 36.5816 26.1322 36.3245 25.7451 36.3245C25.6722 36.3245 25.5972 36.3326 25.5202 36.3549ZM15.5464 36.9702C15.4228 37.4358 15.7004 37.9115 16.1645 38.035C16.6305 38.1605 17.1088 37.8852 17.2344 37.4196C17.358 36.9561 17.0824 36.4783 16.6143 36.3528C16.5394 36.3326 16.4644 36.3225 16.3894 36.3225C16.0064 36.3245 15.6518 36.5796 15.5464 36.9702ZM20.2557 37.8124C20.2557 38.2617 20.6205 38.6221 21.0663 38.6221C21.5161 38.6221 21.8809 38.2617 21.8809 37.8103C21.8809 37.363 21.5161 37.0006 21.0663 37.0006C20.6205 37.0006 20.2557 37.363 20.2557 37.8124Z" fill="currentColor"></path></svg>